<svg xmlns="http://www.w3.org/2000/svg" width="252.0167236328125" height="254.92466735839844" viewBox="-29.94818115234375 -21.014663696289062 252.0167236328125 254.92466735839844"><title>Neo4j Graph Visualization</title><desc>Created using Neo4j (http://www.neo4j.com/)</desc><g class="layer relationships"><g class="relationship" transform="translate(84.21674535468159 114.78927098375658) rotate(220.4520986793084)"><path class="outline" fill="#A5ABB6" stroke="none" d="M 25 0.5 L 29.678455976243796 0.5 L 29.678455976243796 -0.5 L 25 -0.5 Z M 75.2409559762438 0.5 L 79.9194119524876 0.5 L 79.9194119524876 3.5 L 86.9194119524876 0 L 79.9194119524876 -3.5 L 79.9194119524876 -0.5 L 75.2409559762438 -0.5 Z"/><text text-anchor="middle" pointer-events="none" font-size="8px" fill="#000000" x="52.4597059762438" y="3" transform="rotate(180 52.4597059762438 0)" font-family="sans-serif">ACTED_IN</text></g><g class="relationship" transform="translate(84.21674535468159 114.78927098375658) rotate(497.101202598811)"><path class="outline" fill="#A5ABB6" stroke="none" d="M 25 0.5 L 28.487541992936656 0.5 L 28.487541992936656 -0.5 L 25 -0.5 Z M 74.05004199293666 0.5 L 77.53758398587331 0.5 L 77.53758398587331 3.5 L 84.53758398587331 0 L 77.53758398587331 -3.5 L 77.53758398587331 -0.5 L 74.05004199293666 -0.5 Z"/><text text-anchor="middle" pointer-events="none" font-size="8px" fill="#000000" x="51.268791992936656" y="3" transform="rotate(180 51.268791992936656 0)" font-family="sans-serif">ACTED_IN</text></g><g class="relationship" transform="translate(84.21674535468159 114.78927098375658) rotate(287.1849634935363)"><path class="outline" fill="#A5ABB6" stroke="none" d="M 25 0.5 L 29.6162075100224 0.5 L 29.6162075100224 -0.5 L 25 -0.5 Z M 75.1787075100224 0.5 L 79.7949150200448 0.5 L 79.7949150200448 3.5 L 86.7949150200448 0 L 79.7949150200448 -3.5 L 79.7949150200448 -0.5 L 75.1787075100224 -0.5 Z"/><text text-anchor="middle" pointer-events="none" font-size="8px" fill="#000000" x="52.3974575100224" y="3" font-family="sans-serif">ACTED_IN</text></g><g class="relationship" transform="translate(84.21674535468159 114.78927098375658) rotate(346.8590791346512)"><path class="outline" fill="#A5ABB6" stroke="none" d="M 25 0.5 L 29.608187741256927 0.5 L 29.608187741256927 -0.5 L 25 -0.5 Z M 75.17068774125693 0.5 L 79.77887548251385 0.5 L 79.77887548251385 3.5 L 86.77887548251385 0 L 79.77887548251385 -3.5 L 79.77887548251385 -0.5 L 75.17068774125693 -0.5 Z"/><text text-anchor="middle" pointer-events="none" font-size="8px" fill="#000000" x="52.38943774125693" y="3" font-family="sans-serif">ACTED_IN</text></g><g class="relationship" transform="translate(84.21674535468159 114.78927098375658) rotate(413.6539695143037)"><path class="outline" fill="#A5ABB6" stroke="none" d="M 25 0.5 L 29.662905810020696 0.5 L 29.662905810020696 -0.5 L 25 -0.5 Z M 75.2254058100207 0.5 L 79.88831162004139 0.5 L 79.88831162004139 3.5 L 86.88831162004139 0 L 79.88831162004139 -3.5 L 79.88831162004139 -0.5 L 75.2254058100207 -0.5 Z"/><text text-anchor="middle" pointer-events="none" font-size="8px" fill="#000000" x="52.444155810020696" y="3" font-family="sans-serif">ACTED_IN</text></g></g><g class="layer nodes"><g class="node" transform="translate(150.52852327354103,204.90998106985919)"><circle class="outline" cx="0" cy="0" r="25" fill="#F79767" stroke="#f36924" stroke-width="2px"/><text text-anchor="middle" pointer-events="none" font-family="sans-serif" dy="1.5625" font-size="25" fill="#FFFFFF"/><text text-anchor="middle" pointer-events="none" font-family="sans-serif" dy="1.5625" font-size="25" fill="#FFFFFF"/><text text-anchor="middle" pointer-events="none" x="0" y="0" font-size="10px" fill="#FFFFFF" font-family="sans-serif"> The</text><text text-anchor="middle" pointer-events="none" x="0" y="10" font-size="10px" fill="#FFFFFF" font-family="sans-serif"> Matrix</text></g><g class="node" transform="translate(84.21674535468159,114.78927098375658)"><circle class="outline" cx="0" cy="0" r="25" fill="#57C7E3" stroke="#23b3d7" stroke-width="2px"/><text text-anchor="middle" pointer-events="none" font-family="sans-serif" dy="1.5625" font-size="25" fill="#2A2C34"/><text text-anchor="middle" pointer-events="none" font-family="sans-serif" dy="1.5625" font-size="25" fill="#2A2C34"/><text text-anchor="middle" pointer-events="none" x="0" y="0" font-size="10px" fill="#2A2C34" font-family="sans-serif"> Hugo</text><text text-anchor="middle" pointer-events="none" x="0" y="10" font-size="10px" fill="#2A2C34" font-family="sans-serif"> Weaving</text></g><g class="node" transform="translate(193.06856172762792,89.37669385262505)"><circle class="outline" cx="0" cy="0" r="25" fill="#F79767" stroke="#f36924" stroke-width="2px"/><text text-anchor="middle" pointer-events="none" font-family="sans-serif" dy="1.5625" font-size="25" fill="#FFFFFF"/><text text-anchor="middle" pointer-events="none" font-family="sans-serif" dy="1.5625" font-size="25" fill="#FFFFFF"/><text text-anchor="middle" pointer-events="none" font-family="sans-serif" dy="1.5625" font-size="25" fill="#FFFFFF"/><text text-anchor="middle" pointer-events="none" x="0" y="-5" font-size="10px" fill="#FFFFFF" font-family="sans-serif"> The</text><text text-anchor="middle" pointer-events="none" x="0" y="5" font-size="10px" fill="#FFFFFF" font-family="sans-serif"> Matrix</text><text text-anchor="middle" pointer-events="none" x="0" y="15" font-size="10px" fill="#FFFFFF" font-family="sans-serif"> Reloa…</text></g><g class="node" transform="translate(117.24737356198659,7.985335547978623)"><circle class="outline" cx="0" cy="0" r="25" fill="#F79767" stroke="#f36924" stroke-width="2px"/><text text-anchor="middle" pointer-events="none" font-family="sans-serif" dy="1.5625" font-size="25" fill="#FFFFFF"/><text text-anchor="middle" pointer-events="none" font-family="sans-serif" dy="1.5625" font-size="25" fill="#FFFFFF"/><text text-anchor="middle" pointer-events="none" font-family="sans-serif" dy="1.5625" font-size="25" fill="#FFFFFF"/><text text-anchor="middle" pointer-events="none" x="0" y="-5" font-size="10px" fill="#FFFFFF" font-family="sans-serif"> The</text><text text-anchor="middle" pointer-events="none" x="0" y="5" font-size="10px" fill="#FFFFFF" font-family="sans-serif"> Matrix</text><text text-anchor="middle" pointer-events="none" x="0" y="15" font-size="10px" fill="#FFFFFF" font-family="sans-serif"> Revol…</text></g><g class="node" transform="translate(-0.948181376029303,42.174602859862574)"><circle class="outline" cx="0" cy="0" r="25" fill="#F79767" stroke="#f36924" stroke-width="2px"/><text text-anchor="middle" pointer-events="none" font-family="sans-serif" dy="1.5625" font-size="25" fill="#FFFFFF"/><text text-anchor="middle" pointer-events="none" font-family="sans-serif" dy="1.5625" font-size="25" fill="#FFFFFF"/><text text-anchor="middle" pointer-events="none" x="0" y="0" font-size="10px" fill="#FFFFFF" font-family="sans-serif"> Cloud</text><text text-anchor="middle" pointer-events="none" x="0" y="10" font-size="10px" fill="#FFFFFF" font-family="sans-serif"> Atlas</text></g><g class="node" transform="translate(3.974201015454574,189.35210611916057)"><circle class="outline" cx="0" cy="0" r="25" fill="#F79767" stroke="#f36924" stroke-width="2px"/><text text-anchor="middle" pointer-events="none" font-family="sans-serif" dy="1.5625" font-size="25" fill="#FFFFFF"/><text text-anchor="middle" pointer-events="none" font-family="sans-serif" dy="1.5625" font-size="25" fill="#FFFFFF"/><text text-anchor="middle" pointer-events="none" x="0" y="0" font-size="10px" fill="#FFFFFF" font-family="sans-serif"> V for</text><text text-anchor="middle" pointer-events="none" x="0" y="10" font-size="10px" fill="#FFFFFF" font-family="sans-serif"> Vendetta</text></g></g></svg>