<svg xmlns="http://www.w3.org/2000/svg" width="656.9476928710938" height="645.8478393554688" viewBox="-250.30299377441406 -230.98870849609375 656.9476928710938 645.8478393554688"><title>Neo4j Graph Visualization</title><desc>Created using Neo4j (http://www.neo4j.com/)</desc><g class="layer relationships"><g class="relationship" transform="translate(90.08976429825395 255.57452037883505) rotate(261.9756789610474)"><path class="outline" fill="#A5ABB6" stroke="none" d="M 25 0.5 L 50.18552268591661 0.5 L 50.18552268591661 -0.5 L 25 -0.5 Z M 84.63083518591661 0.5 L 109.81635787183322 0.5 L 109.81635787183322 3.5 L 116.81635787183322 0 L 109.81635787183322 -3.5 L 109.81635787183322 -0.5 L 84.63083518591661 -0.5 Z"/><text text-anchor="middle" pointer-events="none" font-size="8px" fill="#000000" x="67.40817893591661" y="3" transform="rotate(180 67.40817893591661 0)" font-family="sans-serif">ORIGIN</text></g><g class="relationship" transform="translate(90.08976429825395 255.57452037883505) rotate(487.94317926130566)"><path class="outline" fill="#A5ABB6" stroke="none" d="M 25 0.5 L 49.50709582365157 0.5 L 49.50709582365157 -0.5 L 25 -0.5 Z M 108.69850207365157 0.5 L 133.20559789730314 0.5 L 133.20559789730314 3.5 L 140.20559789730314 0 L 133.20559789730314 -3.5 L 133.20559789730314 -0.5 L 108.69850207365157 -0.5 Z"/><text text-anchor="middle" pointer-events="none" font-size="8px" fill="#000000" x="79.10279894865157" y="3" transform="rotate(180 79.10279894865157 0)" font-family="sans-serif">DESTINATION</text></g><g class="relationship" transform="translate(219.60600689510838 184.0857127764717) rotate(204.78316806934424)"><path class="outline" fill="#A5ABB6" stroke="none" d="M 25 0.5 L 61.50708643235346 0.5 L 61.50708643235346 -0.5 L 25 -0.5 Z M 95.95239893235346 0.5 L 132.45948536470692 0.5 L 132.45948536470692 3.5 L 139.45948536470692 0 L 132.45948536470692 -3.5 L 132.45948536470692 -0.5 L 95.95239893235346 -0.5 Z"/><text text-anchor="middle" pointer-events="none" font-size="8px" fill="#000000" x="78.72974268235346" y="3" transform="rotate(180 78.72974268235346 0)" font-family="sans-serif">ORIGIN</text></g><g class="relationship" transform="translate(219.60600689510838 184.0857127764717) rotate(378.70324867864343)"><path class="outline" fill="#A5ABB6" stroke="none" d="M 25 0.5 L 46.676371905907544 0.5 L 46.676371905907544 -0.5 L 25 -0.5 Z M 105.86777815590754 0.5 L 127.54415006181509 0.5 L 127.54415006181509 3.5 L 134.5441500618151 0 L 127.54415006181509 -3.5 L 127.54415006181509 -0.5 L 105.86777815590754 -0.5 Z"/><text text-anchor="middle" pointer-events="none" font-size="8px" fill="#000000" x="76.27207503090754" y="3" font-family="sans-serif">DESTINATION</text></g><g class="relationship" transform="translate(184.11626090957597 235.90806857419074) rotate(226.69412698919655)"><path class="outline" fill="#A5ABB6" stroke="none" d="M 25 0.5 L 62.251756919591855 0.5 L 62.251756919591855 -0.5 L 25 -0.5 Z M 96.69706941959186 0.5 L 133.9488263391837 0.5 L 133.9488263391837 3.5 L 140.9488263391837 0 L 133.9488263391837 -3.5 L 133.9488263391837 -0.5 L 96.69706941959186 -0.5 Z"/><text text-anchor="middle" pointer-events="none" font-size="8px" fill="#000000" x="79.47441316959186" y="3" transform="rotate(180 79.47441316959186 0)" font-family="sans-serif">ORIGIN</text></g><g class="relationship" transform="translate(184.11626090957597 235.90806857419074) rotate(409.7670041687877)"><path class="outline" fill="#A5ABB6" stroke="none" d="M 25 0.5 L 45.89618428356113 0.5 L 45.89618428356113 -0.5 L 25 -0.5 Z M 105.08759053356113 0.5 L 125.98377481712225 0.5 L 125.98377481712225 3.5 L 132.98377481712225 0 L 125.98377481712225 -3.5 L 125.98377481712225 -0.5 L 105.08759053356113 -0.5 Z"/><text text-anchor="middle" pointer-events="none" font-size="8px" fill="#000000" x="75.49188740856113" y="3" font-family="sans-serif">DESTINATION</text></g><g class="relationship" transform="translate(-90.7600679148723 39.613673472289435) rotate(385.12630799462613)"><path class="outline" fill="#A5ABB6" stroke="none" d="M 25 0.5 L 68.22026230869513 0.5 L 68.22026230869513 -0.5 L 25 -0.5 Z M 102.66557480869513 0.5 L 145.88583711739025 0.5 L 145.88583711739025 3.5 L 152.88583711739025 0 L 145.88583711739025 -3.5 L 145.88583711739025 -0.5 L 102.66557480869513 -0.5 Z"/><text text-anchor="middle" pointer-events="none" font-size="8px" fill="#000000" x="85.44291855869513" y="3" font-family="sans-serif">ORIGIN</text></g><g class="relationship" transform="translate(-90.7600679148723 39.613673472289435) rotate(522.0852615495683)"><path class="outline" fill="#A5ABB6" stroke="none" d="M 25 0.5 L 35.50168483282394 0.5 L 35.50168483282394 -0.5 L 25 -0.5 Z M 94.69309108282394 0.5 L 105.19477591564788 0.5 L 105.19477591564788 3.5 L 112.19477591564788 0 L 105.19477591564788 -3.5 L 105.19477591564788 -0.5 L 94.69309108282394 -0.5 Z"/><text text-anchor="middle" pointer-events="none" font-size="8px" fill="#000000" x="65.09738795782394" y="3" transform="rotate(180 65.09738795782394 0)" font-family="sans-serif">DESTINATION</text></g><g class="relationship" transform="translate(213.187046540416 14.51946956082096) rotate(504.8464354420175)"><path class="outline" fill="#A5ABB6" stroke="none" d="M 25 0.5 L 66.66228326496278 0.5 L 66.66228326496278 -0.5 L 25 -0.5 Z M 101.10759576496278 0.5 L 142.76987902992556 0.5 L 142.76987902992556 3.5 L 149.76987902992556 0 L 142.76987902992556 -3.5 L 142.76987902992556 -0.5 L 101.10759576496278 -0.5 Z"/><text text-anchor="middle" pointer-events="none" font-size="8px" fill="#000000" x="83.88493951496278" y="3" transform="rotate(180 83.88493951496278 0)" font-family="sans-serif">ORIGIN</text></g><g class="relationship" transform="translate(213.187046540416 14.51946956082096) rotate(285.07859072417796)"><path class="outline" fill="#A5ABB6" stroke="none" d="M 25 0.5 L 37.17968848703143 0.5 L 37.17968848703143 -0.5 L 25 -0.5 Z M 96.37109473703143 0.5 L 108.55078322406285 0.5 L 108.55078322406285 3.5 L 115.55078322406285 0 L 108.55078322406285 -3.5 L 108.55078322406285 -0.5 L 96.37109473703143 -0.5 Z"/><text text-anchor="middle" pointer-events="none" font-size="8px" fill="#000000" x="66.77539161203143" y="3" font-family="sans-serif">DESTINATION</text></g><g class="relationship" transform="translate(103.85002460943478 313.83061813007447) rotate(260.4134508583034)"><path class="outline" fill="#A5ABB6" stroke="none" d="M 25 0.5 L 80.02624490681096 0.5 L 80.02624490681096 -0.5 L 25 -0.5 Z M 114.47155740681096 0.5 L 169.49780231362192 0.5 L 169.49780231362192 3.5 L 176.49780231362192 0 L 169.49780231362192 -3.5 L 169.49780231362192 -0.5 L 114.47155740681096 -0.5 Z"/><text text-anchor="middle" pointer-events="none" font-size="8px" fill="#000000" x="97.24890115681096" y="3" transform="rotate(180 97.24890115681096 0)" font-family="sans-serif">ORIGIN</text></g><g class="relationship" transform="translate(103.85002460943478 313.83061813007447) rotate(508.01610781703863)"><path class="outline" fill="#A5ABB6" stroke="none" d="M 25 0.5 L 34.896651491616524 0.5 L 34.896651491616524 -0.5 L 25 -0.5 Z M 94.08805774161652 0.5 L 103.98470923323305 0.5 L 103.98470923323305 3.5 L 110.98470923323305 0 L 103.98470923323305 -3.5 L 103.98470923323305 -0.5 L 94.08805774161652 -0.5 Z"/><text text-anchor="middle" pointer-events="none" font-size="8px" fill="#000000" x="64.49235461661652" y="3" transform="rotate(180 64.49235461661652 0)" font-family="sans-serif">DESTINATION</text></g><g class="relationship" transform="translate(187.30292532060045 -39.53758324227998) rotate(487.1054165986693)"><path class="outline" fill="#A5ABB6" stroke="none" d="M 25 0.5 L 76.25481470406646 0.5 L 76.25481470406646 -0.5 L 25 -0.5 Z M 110.70012720406646 0.5 L 161.95494190813292 0.5 L 161.95494190813292 3.5 L 168.95494190813292 0 L 161.95494190813292 -3.5 L 161.95494190813292 -0.5 L 110.70012720406646 -0.5 Z"/><text text-anchor="middle" pointer-events="none" font-size="8px" fill="#000000" x="93.47747095406646" y="3" transform="rotate(180 93.47747095406646 0)" font-family="sans-serif">ORIGIN</text></g><g class="relationship" transform="translate(187.30292532060045 -39.53758324227998) rotate(307.40792848575893)"><path class="outline" fill="#A5ABB6" stroke="none" d="M 25 0.5 L 26.230376630725686 0.5 L 26.230376630725686 -0.5 L 25 -0.5 Z M 69.56631413072569 0.5 L 70.79669076145137 0.5 L 70.79669076145137 3.5 L 77.79669076145137 0 L 70.79669076145137 -3.5 L 70.79669076145137 -0.5 L 69.56631413072569 -0.5 Z"/><text text-anchor="middle" pointer-events="none" font-size="8px" fill="#000000" x="47.89834538072569" y="3" font-family="sans-serif">DESTIN…</text></g><g class="relationship" transform="translate(-59.511085852583065 90.80811568277723) rotate(370.61978057939444)"><path class="outline" fill="#A5ABB6" stroke="none" d="M 25 0.5 L 45.31048209634183 0.5 L 45.31048209634183 -0.5 L 25 -0.5 Z M 79.75579459634183 0.5 L 100.06627669268366 0.5 L 100.06627669268366 3.5 L 107.06627669268366 0 L 100.06627669268366 -3.5 L 100.06627669268366 -0.5 L 79.75579459634183 -0.5 Z"/><text text-anchor="middle" pointer-events="none" font-size="8px" fill="#000000" x="62.53313834634183" y="3" font-family="sans-serif">ORIGIN</text></g><g class="relationship" transform="translate(-59.511085852583065 90.80811568277723) rotate(183.18148900363184)"><path class="outline" fill="#A5ABB6" stroke="none" d="M 25 0.5 L 47.92512636735373 0.5 L 47.92512636735373 -0.5 L 25 -0.5 Z M 107.11653261735373 0.5 L 130.04165898470745 0.5 L 130.04165898470745 3.5 L 137.04165898470745 0 L 130.04165898470745 -3.5 L 130.04165898470745 -0.5 L 107.11653261735373 -0.5 Z"/><text text-anchor="middle" pointer-events="none" font-size="8px" fill="#000000" x="77.52082949235373" y="3" transform="rotate(180 77.52082949235373 0)" font-family="sans-serif">DESTINATION</text></g><g class="relationship" transform="translate(127.70497069915668 -45.75319192732781) rotate(469.63727132062644)"><path class="outline" fill="#A5ABB6" stroke="none" d="M 25 0.5 L 64.69527895332651 0.5 L 64.69527895332651 -0.5 L 25 -0.5 Z M 99.14059145332651 0.5 L 138.83587040665302 0.5 L 138.83587040665302 3.5 L 145.83587040665302 0 L 138.83587040665302 -3.5 L 138.83587040665302 -0.5 L 99.14059145332651 -0.5 Z"/><text text-anchor="middle" pointer-events="none" font-size="8px" fill="#000000" x="81.91793520332651" y="3" transform="rotate(180 81.91793520332651 0)" font-family="sans-serif">ORIGIN</text></g><g class="relationship" transform="translate(127.70497069915668 -45.75319192732781) rotate(328.2788944413883)"><path class="outline" fill="#A5ABB6" stroke="none" d="M 25 0.5 L 38.64364064291779 0.5 L 38.64364064291779 -0.5 L 25 -0.5 Z M 97.83504689291779 0.5 L 111.47868753583558 0.5 L 111.47868753583558 3.5 L 118.47868753583558 0 L 111.47868753583558 -3.5 L 111.47868753583558 -0.5 L 97.83504689291779 -0.5 Z"/><text text-anchor="middle" pointer-events="none" font-size="8px" fill="#000000" x="68.23934376791779" y="3" font-family="sans-serif">DESTINATION</text></g><g class="relationship" transform="translate(7.731968746319784 -43.8458996120422) rotate(428.5211192191413)"><path class="outline" fill="#A5ABB6" stroke="none" d="M 25 0.5 L 64.7064749612998 0.5 L 64.7064749612998 -0.5 L 25 -0.5 Z M 99.1517874612998 0.5 L 138.8582624225996 0.5 L 138.8582624225996 3.5 L 145.8582624225996 0 L 138.8582624225996 -3.5 L 138.8582624225996 -0.5 L 99.1517874612998 -0.5 Z"/><text text-anchor="middle" pointer-events="none" font-size="8px" fill="#000000" x="81.9291312112998" y="3" font-family="sans-serif">ORIGIN</text></g><g class="relationship" transform="translate(7.731968746319784 -43.8458996120422) rotate(226.84908772497334)"><path class="outline" fill="#A5ABB6" stroke="none" d="M 25 0.5 L 36.88881089606156 0.5 L 36.88881089606156 -0.5 L 25 -0.5 Z M 96.08021714606156 0.5 L 107.96902804212311 0.5 L 107.96902804212311 3.5 L 114.96902804212311 0 L 107.96902804212311 -3.5 L 107.96902804212311 -0.5 L 96.08021714606156 -0.5 Z"/><text text-anchor="middle" pointer-events="none" font-size="8px" fill="#000000" x="66.48451402106156" y="3" transform="rotate(180 66.48451402106156 0)" font-family="sans-serif">DESTINATION</text></g><g class="relationship" transform="translate(235.5504496097434 70.2316581146955) rotate(524.7949560709749)"><path class="outline" fill="#A5ABB6" stroke="none" d="M 25 0.5 L 64.90348217142443 0.5 L 64.90348217142443 -0.5 L 25 -0.5 Z M 99.34879467142443 0.5 L 139.25227684284886 0.5 L 139.25227684284886 3.5 L 146.25227684284886 0 L 139.25227684284886 -3.5 L 139.25227684284886 -0.5 L 99.34879467142443 -0.5 Z"/><text text-anchor="middle" pointer-events="none" font-size="8px" fill="#000000" x="82.12613842142443" y="3" transform="rotate(180 82.12613842142443 0)" font-family="sans-serif">ORIGIN</text></g><g class="relationship" transform="translate(235.5504496097434 70.2316581146955) rotate(361.2533662540757)"><path class="outline" fill="#A5ABB6" stroke="none" d="M 25 0.5 L 37.96841118835047 0.5 L 37.96841118835047 -0.5 L 25 -0.5 Z M 97.15981743835047 0.5 L 110.12822862670095 0.5 L 110.12822862670095 3.5 L 117.12822862670095 0 L 110.12822862670095 -3.5 L 110.12822862670095 -0.5 L 97.15981743835047 -0.5 Z"/><text text-anchor="middle" pointer-events="none" font-size="8px" fill="#000000" x="67.56411431335047" y="3" font-family="sans-serif">DESTINATION</text></g><g class="relationship" transform="translate(67.7291618594363 -42.55515886084939) rotate(449.0685482337307)"><path class="outline" fill="#A5ABB6" stroke="none" d="M 25 0.5 L 58.138694067929464 0.5 L 58.138694067929464 -0.5 L 25 -0.5 Z M 92.58400656792946 0.5 L 125.72270063585893 0.5 L 125.72270063585893 3.5 L 132.72270063585893 0 L 125.72270063585893 -3.5 L 125.72270063585893 -0.5 L 92.58400656792946 -0.5 Z"/><text text-anchor="middle" pointer-events="none" font-size="8px" fill="#000000" x="75.36135031792946" y="3" font-family="sans-serif">ORIGIN</text></g><g class="relationship" transform="translate(67.7291618594363 -42.55515886084939) rotate(273.5699055728907)"><path class="outline" fill="#A5ABB6" stroke="none" d="M 25 0.5 L 46.77605746507908 0.5 L 46.77605746507908 -0.5 L 25 -0.5 Z M 105.96746371507908 0.5 L 127.74352118015815 0.5 L 127.74352118015815 3.5 L 134.74352118015815 0 L 127.74352118015815 -3.5 L 127.74352118015815 -0.5 L 105.96746371507908 -0.5 Z"/><text text-anchor="middle" pointer-events="none" font-size="8px" fill="#000000" x="76.37176059007908" y="3" font-family="sans-serif">DESTINATION</text></g><g class="relationship" transform="translate(-68.35167955138935 262.0626512565034) rotate(313.34091710260304)"><path class="outline" fill="#A5ABB6" stroke="none" d="M 25 0.5 L 80.28066076645369 0.5 L 80.28066076645369 -0.5 L 25 -0.5 Z M 114.72597326645369 0.5 L 170.00663403290739 0.5 L 170.00663403290739 3.5 L 177.00663403290739 0 L 170.00663403290739 -3.5 L 170.00663403290739 -0.5 L 114.72597326645369 -0.5 Z"/><text text-anchor="middle" pointer-events="none" font-size="8px" fill="#000000" x="97.50331701645369" y="3" font-family="sans-serif">ORIGIN</text></g><g class="relationship" transform="translate(-68.35167955138935 262.0626512565034) rotate(425.3306192146289)"><path class="outline" fill="#A5ABB6" stroke="none" d="M 25 0.5 L 35.01928986241511 0.5 L 35.01928986241511 -0.5 L 25 -0.5 Z M 94.2106961124151 0.5 L 104.22998597483021 0.5 L 104.22998597483021 3.5 L 111.22998597483021 0 L 104.22998597483021 -3.5 L 104.22998597483021 -0.5 L 94.2106961124151 -0.5 Z"/><text text-anchor="middle" pointer-events="none" font-size="8px" fill="#000000" x="64.6149929874151" y="3" font-family="sans-serif">DESTINATION</text></g><g class="relationship" transform="translate(-98.58020874448226 148.59401324510455) rotate(348.7969012904989)"><path class="outline" fill="#A5ABB6" stroke="none" d="M 25 0.5 L 65.35423911603024 0.5 L 65.35423911603024 -0.5 L 25 -0.5 Z M 99.79955161603024 0.5 L 140.1537907320605 0.5 L 140.1537907320605 3.5 L 147.1537907320605 0 L 140.1537907320605 -3.5 L 140.1537907320605 -0.5 L 99.79955161603024 -0.5 Z"/><text text-anchor="middle" pointer-events="none" font-size="8px" fill="#000000" x="82.57689536603024" y="3" font-family="sans-serif">ORIGIN</text></g><g class="relationship" transform="translate(-98.58020874448226 148.59401324510455) rotate(208.5526169081985)"><path class="outline" fill="#A5ABB6" stroke="none" d="M 25 0.5 L 36.761870812026245 0.5 L 36.761870812026245 -0.5 L 25 -0.5 Z M 95.95327706202625 0.5 L 107.71514787405249 0.5 L 107.71514787405249 3.5 L 114.71514787405249 0 L 107.71514787405249 -3.5 L 107.71514787405249 -0.5 L 95.95327706202625 -0.5 Z"/><text text-anchor="middle" pointer-events="none" font-size="8px" fill="#000000" x="66.35757393702625" y="3" transform="rotate(180 66.35757393702625 0)" font-family="sans-serif">DESTINATION</text></g><g class="relationship" transform="translate(-11.015837326593488 279.38802901290876) rotate(296.3380748002613)"><path class="outline" fill="#A5ABB6" stroke="none" d="M 25 0.5 L 70.91025600385198 0.5 L 70.91025600385198 -0.5 L 25 -0.5 Z M 105.35556850385198 0.5 L 151.26582450770397 0.5 L 151.26582450770397 3.5 L 158.26582450770397 0 L 151.26582450770397 -3.5 L 151.26582450770397 -0.5 L 105.35556850385198 -0.5 Z"/><text text-anchor="middle" pointer-events="none" font-size="8px" fill="#000000" x="88.13291225385198" y="3" font-family="sans-serif">ORIGIN</text></g><g class="relationship" transform="translate(-11.015837326593488 279.38802901290876) rotate(450.2561321393486)"><path class="outline" fill="#A5ABB6" stroke="none" d="M 25 0.5 L 25.40013566820263 0.5 L 25.40013566820263 -0.5 L 25 -0.5 Z M 74.07201066820264 0.5 L 74.47214633640526 0.5 L 74.47214633640526 3.5 L 81.47214633640526 0 L 74.47214633640526 -3.5 L 74.47214633640526 -0.5 L 74.07201066820264 -0.5 Z"/><text text-anchor="middle" pointer-events="none" font-size="8px" fill="#000000" x="49.73607316820263" y="3" transform="rotate(180 49.73607316820263 0)" font-family="sans-serif">DESTINA…</text></g><g class="relationship" transform="translate(244.38348528011247 129.46523911603308) rotate(184.7018654453376)"><path class="outline" fill="#A5ABB6" stroke="none" d="M 25 0.5 L 66.61644148112923 0.5 L 66.61644148112923 -0.5 L 25 -0.5 Z M 101.06175398112923 0.5 L 142.67819546225846 0.5 L 142.67819546225846 3.5 L 149.67819546225846 0 L 142.67819546225846 -3.5 L 142.67819546225846 -0.5 L 101.06175398112923 -0.5 Z"/><text text-anchor="middle" pointer-events="none" font-size="8px" fill="#000000" x="83.83909773112923" y="3" transform="rotate(180 83.83909773112923 0)" font-family="sans-serif">ORIGIN</text></g><g class="relationship" transform="translate(244.38348528011247 129.46523911603308) rotate(337.1609600463805)"><path class="outline" fill="#A5ABB6" stroke="none" d="M 25 0.5 L 39.20320519745775 0.5 L 39.20320519745775 -0.5 L 25 -0.5 Z M 98.39461144745775 0.5 L 112.5978166449155 0.5 L 112.5978166449155 3.5 L 119.5978166449155 0 L 112.5978166449155 -3.5 L 112.5978166449155 -0.5 L 98.39461144745775 -0.5 Z"/><text text-anchor="middle" pointer-events="none" font-size="8px" fill="#000000" x="68.79890832245775" y="3" font-family="sans-serif">DESTINATION</text></g><g class="relationship" transform="translate(-119.29300328772435 92.37604765348703) rotate(366.8488261089749)"><path class="outline" fill="#A5ABB6" stroke="none" d="M 25 0.5 L 74.75169236721723 0.5 L 74.75169236721723 -0.5 L 25 -0.5 Z M 109.19700486721723 0.5 L 158.94869723443446 0.5 L 158.94869723443446 3.5 L 165.94869723443446 0 L 158.94869723443446 -3.5 L 158.94869723443446 -0.5 L 109.19700486721723 -0.5 Z"/><text text-anchor="middle" pointer-events="none" font-size="8px" fill="#000000" x="91.97434861721723" y="3" font-family="sans-serif">ORIGIN</text></g><g class="relationship" transform="translate(-119.29300328772435 92.37604765348703) rotate(185.91076039875674)"><path class="outline" fill="#A5ABB6" stroke="none" d="M 25 0.5 L 26.1096461211199 0.5 L 26.1096461211199 -0.5 L 25 -0.5 Z M 69.44558362111991 0.5 L 70.5552297422398 0.5 L 70.5552297422398 3.5 L 77.5552297422398 0 L 70.5552297422398 -3.5 L 70.5552297422398 -0.5 L 69.44558362111991 -0.5 Z"/><text text-anchor="middle" pointer-events="none" font-size="8px" fill="#000000" x="47.7776148711199" y="3" transform="rotate(180 47.7776148711199 0)" font-family="sans-serif">DESTIN…</text></g><g class="relationship" transform="translate(-24.70258805837745 221.09158188411809) rotate(311.88106326105594)"><path class="outline" fill="#A5ABB6" stroke="none" d="M 25 0.5 L 50.4259639260715 0.5 L 50.4259639260715 -0.5 L 25 -0.5 Z M 84.8712764260715 0.5 L 110.297240352143 0.5 L 110.297240352143 3.5 L 117.297240352143 0 L 110.297240352143 -3.5 L 110.297240352143 -0.5 L 84.8712764260715 -0.5 Z"/><text text-anchor="middle" pointer-events="none" font-size="8px" fill="#000000" x="67.6486201760715" y="3" font-family="sans-serif">ORIGIN</text></g><g class="relationship" transform="translate(-24.70258805837745 221.09158188411809) rotate(445.415926550708)"><path class="outline" fill="#A5ABB6" stroke="none" d="M 25 0.5 L 49.55244210559361 0.5 L 49.55244210559361 -0.5 L 25 -0.5 Z M 108.74384835559361 0.5 L 133.29629046118723 0.5 L 133.29629046118723 3.5 L 140.29629046118723 0 L 133.29629046118723 -3.5 L 133.29629046118723 -0.5 L 108.74384835559361 -0.5 Z"/><text text-anchor="middle" pointer-events="none" font-size="8px" fill="#000000" x="79.14814523059361" y="3" font-family="sans-serif">DESTINATION</text></g><g class="relationship" transform="translate(-42.84974039945496 -11.773587037716204) rotate(408.28464733101015)"><path class="outline" fill="#A5ABB6" stroke="none" d="M 25 0.5 L 64.29214936022234 0.5 L 64.29214936022234 -0.5 L 25 -0.5 Z M 98.73746186022234 0.5 L 138.02961122044468 0.5 L 138.02961122044468 3.5 L 145.02961122044468 0 L 138.02961122044468 -3.5 L 138.02961122044468 -0.5 L 98.73746186022234 -0.5 Z"/><text text-anchor="middle" pointer-events="none" font-size="8px" fill="#000000" x="81.51480561022234" y="3" font-family="sans-serif">ORIGIN</text></g><g class="relationship" transform="translate(-42.84974039945496 -11.773587037716204) rotate(251.40491517372578)"><path class="outline" fill="#A5ABB6" stroke="none" d="M 25 0.5 L 37.693489497981545 0.5 L 37.693489497981545 -0.5 L 25 -0.5 Z M 96.88489574798155 0.5 L 109.57838524596309 0.5 L 109.57838524596309 3.5 L 116.57838524596309 0 L 109.57838524596309 -3.5 L 109.57838524596309 -0.5 L 96.88489574798155 -0.5 Z"/><text text-anchor="middle" pointer-events="none" font-size="8px" fill="#000000" x="67.28919262298155" y="3" transform="rotate(180 67.28919262298155 0)" font-family="sans-serif">DESTINATION</text></g><g class="relationship" transform="translate(46.47028221190975 296.6528892642971) rotate(277.47738045156734)"><path class="outline" fill="#A5ABB6" stroke="none" d="M 25 0.5 L 70.8087929781239 0.5 L 70.8087929781239 -0.5 L 25 -0.5 Z M 105.2541054781239 0.5 L 151.0628984562478 0.5 L 151.0628984562478 3.5 L 158.0628984562478 0 L 151.0628984562478 -3.5 L 151.0628984562478 -0.5 L 105.2541054781239 -0.5 Z"/><text text-anchor="middle" pointer-events="none" font-size="8px" fill="#000000" x="88.0314492281239" y="3" font-family="sans-serif">ORIGIN</text></g><g class="relationship" transform="translate(46.47028221190975 296.6528892642971) rotate(483.0139516357057)"><path class="outline" fill="#A5ABB6" stroke="none" d="M 25 0.5 L 25.355587792397337 0.5 L 25.355587792397337 -0.5 L 25 -0.5 Z M 74.02746279239733 0.5 L 74.38305058479467 0.5 L 74.38305058479467 3.5 L 81.38305058479467 0 L 74.38305058479467 -3.5 L 74.38305058479467 -0.5 L 74.02746279239733 -0.5 Z"/><text text-anchor="middle" pointer-events="none" font-size="8px" fill="#000000" x="49.69152529239734" y="3" transform="rotate(180 49.69152529239734 0)" font-family="sans-serif">DESTINA…</text></g><g class="relationship" transform="translate(32.69905436897108 238.38673968599676) rotate(286.9642003738148)"><path class="outline" fill="#A5ABB6" stroke="none" d="M 25 0.5 L 43.70059641135994 0.5 L 43.70059641135994 -0.5 L 25 -0.5 Z M 78.14590891135994 0.5 L 96.84650532271988 0.5 L 96.84650532271988 3.5 L 103.84650532271988 0 L 96.84650532271988 -3.5 L 96.84650532271988 -0.5 L 78.14590891135994 -0.5 Z"/><text text-anchor="middle" pointer-events="none" font-size="8px" fill="#000000" x="60.92325266135994" y="3" font-family="sans-serif">ORIGIN</text></g><g class="relationship" transform="translate(32.69905436897108 238.38673968599676) rotate(466.6811162405554)"><path class="outline" fill="#A5ABB6" stroke="none" d="M 25 0.5 L 43.87983252415489 0.5 L 43.87983252415489 -0.5 L 25 -0.5 Z M 103.07123877415489 0.5 L 121.95107129830978 0.5 L 121.95107129830978 3.5 L 128.95107129830978 0 L 121.95107129830978 -3.5 L 121.95107129830978 -0.5 L 103.07123877415489 -0.5 Z"/><text text-anchor="middle" pointer-events="none" font-size="8px" fill="#000000" x="73.47553564915489" y="3" transform="rotate(180 73.47553564915489 0)" font-family="sans-serif">DESTINATION</text></g><g class="relationship" transform="translate(153.41067269826533 9.75202878653806) rotate(488.26041937670607)"><path class="outline" fill="#A5ABB6" stroke="none" d="M 25 0.5 L 46.3902383486444 0.5 L 46.3902383486444 -0.5 L 25 -0.5 Z M 80.8355508486444 0.5 L 102.2257891972888 0.5 L 102.2257891972888 3.5 L 109.2257891972888 0 L 102.2257891972888 -3.5 L 102.2257891972888 -0.5 L 80.8355508486444 -0.5 Z"/><text text-anchor="middle" pointer-events="none" font-size="8px" fill="#000000" x="63.6128945986444" y="3" transform="rotate(180 63.6128945986444 0)" font-family="sans-serif">ORIGIN</text></g><g class="relationship" transform="translate(153.41067269826533 9.75202878653806) rotate(306.3430973848176)"><path class="outline" fill="#A5ABB6" stroke="none" d="M 25 0.5 L 48.18733240960199 0.5 L 48.18733240960199 -0.5 L 25 -0.5 Z M 107.37873865960199 0.5 L 130.56607106920399 0.5 L 130.56607106920399 3.5 L 137.56607106920399 0 L 130.56607106920399 -3.5 L 130.56607106920399 -0.5 L 107.37873865960199 -0.5 Z"/><text text-anchor="middle" pointer-events="none" font-size="8px" fill="#000000" x="77.78303553460199" y="3" font-family="sans-serif">DESTINATION</text></g></g><g class="layer nodes"><g class="node" transform="translate(70.29313111357162,115.14670021992565)"><circle class="outline" cx="0" cy="0" r="25" fill="#4C8EDA" stroke="#2870c2" stroke-width="2px"/><text text-anchor="middle" pointer-events="none" font-family="sans-serif" dy="1.5625" font-size="25" fill="#FFFFFF"/><text text-anchor="middle" pointer-events="none" x="0" y="5" font-size="10px" fill="#FFFFFF" font-family="sans-serif"> LAX</text></g><g class="node" transform="translate(-11.491803410370093,385.85911148025286)"><circle class="outline" cx="0" cy="0" r="25" fill="#4C8EDA" stroke="#2870c2" stroke-width="2px"/><text text-anchor="middle" pointer-events="none" font-family="sans-serif" dy="1.5625" font-size="25" fill="#FFFFFF"/><text text-anchor="middle" pointer-events="none" x="0" y="5" font-size="10px" fill="#FFFFFF" font-family="sans-serif"> ABQ</text></g><g class="node" transform="translate(370.724965023636,235.24620840635478)"><circle class="outline" cx="0" cy="0" r="25" fill="#4C8EDA" stroke="#2870c2" stroke-width="2px"/><text text-anchor="middle" pointer-events="none" font-family="sans-serif" dy="1.5625" font-size="25" fill="#FFFFFF"/><text text-anchor="middle" pointer-events="none" x="0" y="5" font-size="10px" fill="#FFFFFF" font-family="sans-serif"> IAH</text></g><g class="node" transform="translate(286.1575766297927,356.5167042167277)"><circle class="outline" cx="0" cy="0" r="25" fill="#4C8EDA" stroke="#2870c2" stroke-width="2px"/><text text-anchor="middle" pointer-events="none" font-family="sans-serif" dy="1.5625" font-size="25" fill="#FFFFFF"/><text text-anchor="middle" pointer-events="none" x="0" y="5" font-size="10px" fill="#FFFFFF" font-family="sans-serif"> LAS</text></g><g class="node" transform="translate(-221.30299760607005,81.81497731688452)"><circle class="outline" cx="0" cy="0" r="25" fill="#4C8EDA" stroke="#2870c2" stroke-width="2px"/><text text-anchor="middle" pointer-events="none" font-family="sans-serif" dy="1.5625" font-size="25" fill="#FFFFFF"/><text text-anchor="middle" pointer-events="none" x="0" y="5" font-size="10px" fill="#FFFFFF" font-family="sans-serif"> SMF</text></g><g class="node" transform="translate(249.7504514990628,-121.19213673255219)"><circle class="outline" cx="0" cy="0" r="25" fill="#4C8EDA" stroke="#2870c2" stroke-width="2px"/><text text-anchor="middle" pointer-events="none" font-family="sans-serif" dy="1.5625" font-size="25" fill="#FFFFFF"/><text text-anchor="middle" pointer-events="none" x="0" y="5" font-size="10px" fill="#FFFFFF" font-family="sans-serif"> FAT</text></g><g class="node" transform="translate(-87.99597314007553,-145.9609815208943)"><circle class="outline" cx="0" cy="0" r="25" fill="#4C8EDA" stroke="#2870c2" stroke-width="2px"/><text text-anchor="middle" pointer-events="none" font-family="sans-serif" dy="1.5625" font-size="25" fill="#FFFFFF"/><text text-anchor="middle" pointer-events="none" x="0" y="5" font-size="10px" fill="#FFFFFF" font-family="sans-serif"> TUS</text></g><g class="node" transform="translate(377.644673159715,73.34051743838137)"><circle class="outline" cx="0" cy="0" r="25" fill="#4C8EDA" stroke="#2870c2" stroke-width="2px"/><text text-anchor="middle" pointer-events="none" font-family="sans-serif" dy="1.5625" font-size="25" fill="#FFFFFF"/><text text-anchor="middle" pointer-events="none" x="0" y="5" font-size="10px" fill="#FFFFFF" font-family="sans-serif"> EWR</text></g><g class="node" transform="translate(77.6757999532956,-201.98870912447936)"><circle class="outline" cx="0" cy="0" r="25" fill="#4C8EDA" stroke="#2870c2" stroke-width="2px"/><text text-anchor="middle" pointer-events="none" font-family="sans-serif" dy="1.5625" font-size="25" fill="#FFFFFF"/><text text-anchor="middle" pointer-events="none" x="0" y="5" font-size="10px" fill="#FFFFFF" font-family="sans-serif"> BOS</text></g><g class="node" transform="translate(90.08976429825395,255.57452037883505)"><circle class="outline" cx="0" cy="0" r="25" fill="#ECB5C9" stroke="#da7298" stroke-width="2px"/><text text-anchor="middle" pointer-events="none" font-family="sans-serif" dy="1.5625" font-size="25" fill="#2A2C34"/><text text-anchor="middle" pointer-events="none" x="0" y="5" font-size="10px" fill="#2A2C34" font-family="sans-serif"> 11/1/2015</text></g><g class="node" transform="translate(219.60600689510838,184.0857127764717)"><circle class="outline" cx="0" cy="0" r="25" fill="#ECB5C9" stroke="#da7298" stroke-width="2px"/><text text-anchor="middle" pointer-events="none" font-family="sans-serif" dy="1.5625" font-size="25" fill="#2A2C34"/><text text-anchor="middle" pointer-events="none" x="0" y="5" font-size="10px" fill="#2A2C34" font-family="sans-serif"> 11/30/20…</text></g><g class="node" transform="translate(184.11626090957597,235.90806857419074)"><circle class="outline" cx="0" cy="0" r="25" fill="#ECB5C9" stroke="#da7298" stroke-width="2px"/><text text-anchor="middle" pointer-events="none" font-family="sans-serif" dy="1.5625" font-size="25" fill="#2A2C34"/><text text-anchor="middle" pointer-events="none" x="0" y="5" font-size="10px" fill="#2A2C34" font-family="sans-serif"> 11/29/20…</text></g><g class="node" transform="translate(-90.7600679148723,39.613673472289435)"><circle class="outline" cx="0" cy="0" r="25" fill="#ECB5C9" stroke="#da7298" stroke-width="2px"/><text text-anchor="middle" pointer-events="none" font-family="sans-serif" dy="1.5625" font-size="25" fill="#2A2C34"/><text text-anchor="middle" pointer-events="none" x="0" y="5" font-size="10px" fill="#2A2C34" font-family="sans-serif"> 11/1/2015</text></g><g class="node" transform="translate(213.187046540416,14.51946956082096)"><circle class="outline" cx="0" cy="0" r="25" fill="#ECB5C9" stroke="#da7298" stroke-width="2px"/><text text-anchor="middle" pointer-events="none" font-family="sans-serif" dy="1.5625" font-size="25" fill="#2A2C34"/><text text-anchor="middle" pointer-events="none" x="0" y="5" font-size="10px" fill="#2A2C34" font-family="sans-serif"> 11/1/2015</text></g><g class="node" transform="translate(103.85002460943478,313.83061813007447)"><circle class="outline" cx="0" cy="0" r="25" fill="#ECB5C9" stroke="#da7298" stroke-width="2px"/><text text-anchor="middle" pointer-events="none" font-family="sans-serif" dy="1.5625" font-size="25" fill="#2A2C34"/><text text-anchor="middle" pointer-events="none" x="0" y="5" font-size="10px" fill="#2A2C34" font-family="sans-serif"> 11/3/2015</text></g><g class="node" transform="translate(187.30292532060045,-39.53758324227998)"><circle class="outline" cx="0" cy="0" r="25" fill="#ECB5C9" stroke="#da7298" stroke-width="2px"/><text text-anchor="middle" pointer-events="none" font-family="sans-serif" dy="1.5625" font-size="25" fill="#2A2C34"/><text text-anchor="middle" pointer-events="none" x="0" y="5" font-size="10px" fill="#2A2C34" font-family="sans-serif"> 11/3/2015</text></g><g class="node" transform="translate(-59.511085852583065,90.80811568277723)"><circle class="outline" cx="0" cy="0" r="25" fill="#ECB5C9" stroke="#da7298" stroke-width="2px"/><text text-anchor="middle" pointer-events="none" font-family="sans-serif" dy="1.5625" font-size="25" fill="#2A2C34"/><text text-anchor="middle" pointer-events="none" x="0" y="5" font-size="10px" fill="#2A2C34" font-family="sans-serif"> 11/2/2015</text></g><g class="node" transform="translate(127.70497069915668,-45.75319192732781)"><circle class="outline" cx="0" cy="0" r="25" fill="#ECB5C9" stroke="#da7298" stroke-width="2px"/><text text-anchor="middle" pointer-events="none" font-family="sans-serif" dy="1.5625" font-size="25" fill="#2A2C34"/><text text-anchor="middle" pointer-events="none" x="0" y="5" font-size="10px" fill="#2A2C34" font-family="sans-serif"> 11/2/2015</text></g><g class="node" transform="translate(7.731968746319784,-43.8458996120422)"><circle class="outline" cx="0" cy="0" r="25" fill="#ECB5C9" stroke="#da7298" stroke-width="2px"/><text text-anchor="middle" pointer-events="none" font-family="sans-serif" dy="1.5625" font-size="25" fill="#2A2C34"/><text text-anchor="middle" pointer-events="none" x="0" y="5" font-size="10px" fill="#2A2C34" font-family="sans-serif"> 11/1/2015</text></g><g class="node" transform="translate(235.5504496097434,70.2316581146955)"><circle class="outline" cx="0" cy="0" r="25" fill="#ECB5C9" stroke="#da7298" stroke-width="2px"/><text text-anchor="middle" pointer-events="none" font-family="sans-serif" dy="1.5625" font-size="25" fill="#2A2C34"/><text text-anchor="middle" pointer-events="none" x="0" y="5" font-size="10px" fill="#2A2C34" font-family="sans-serif"> 11/30/20…</text></g><g class="node" transform="translate(67.7291618594363,-42.55515886084939)"><circle class="outline" cx="0" cy="0" r="25" fill="#ECB5C9" stroke="#da7298" stroke-width="2px"/><text text-anchor="middle" pointer-events="none" font-family="sans-serif" dy="1.5625" font-size="25" fill="#2A2C34"/><text text-anchor="middle" pointer-events="none" x="0" y="5" font-size="10px" fill="#2A2C34" font-family="sans-serif"> 11/29/20…</text></g><g class="node" transform="translate(-68.35167955138935,262.0626512565034)"><circle class="outline" cx="0" cy="0" r="25" fill="#ECB5C9" stroke="#da7298" stroke-width="2px"/><text text-anchor="middle" pointer-events="none" font-family="sans-serif" dy="1.5625" font-size="25" fill="#2A2C34"/><text text-anchor="middle" pointer-events="none" x="0" y="5" font-size="10px" fill="#2A2C34" font-family="sans-serif"> 11/4/2015</text></g><g class="node" transform="translate(-98.58020874448226,148.59401324510455)"><circle class="outline" cx="0" cy="0" r="25" fill="#ECB5C9" stroke="#da7298" stroke-width="2px"/><text text-anchor="middle" pointer-events="none" font-family="sans-serif" dy="1.5625" font-size="25" fill="#2A2C34"/><text text-anchor="middle" pointer-events="none" x="0" y="5" font-size="10px" fill="#2A2C34" font-family="sans-serif"> 11/4/2015</text></g><g class="node" transform="translate(-11.015837326593488,279.38802901290876)"><circle class="outline" cx="0" cy="0" r="25" fill="#ECB5C9" stroke="#da7298" stroke-width="2px"/><text text-anchor="middle" pointer-events="none" font-family="sans-serif" dy="1.5625" font-size="25" fill="#2A2C34"/><text text-anchor="middle" pointer-events="none" x="0" y="5" font-size="10px" fill="#2A2C34" font-family="sans-serif"> 11/3/2015</text></g><g class="node" transform="translate(244.38348528011247,129.46523911603308)"><circle class="outline" cx="0" cy="0" r="25" fill="#ECB5C9" stroke="#da7298" stroke-width="2px"/><text text-anchor="middle" pointer-events="none" font-family="sans-serif" dy="1.5625" font-size="25" fill="#2A2C34"/><text text-anchor="middle" pointer-events="none" x="0" y="5" font-size="10px" fill="#2A2C34" font-family="sans-serif"> 11/29/20…</text></g><g class="node" transform="translate(-119.29300328772435,92.37604765348703)"><circle class="outline" cx="0" cy="0" r="25" fill="#ECB5C9" stroke="#da7298" stroke-width="2px"/><text text-anchor="middle" pointer-events="none" font-family="sans-serif" dy="1.5625" font-size="25" fill="#2A2C34"/><text text-anchor="middle" pointer-events="none" x="0" y="5" font-size="10px" fill="#2A2C34" font-family="sans-serif"> 11/3/2015</text></g><g class="node" transform="translate(-24.70258805837745,221.09158188411809)"><circle class="outline" cx="0" cy="0" r="25" fill="#ECB5C9" stroke="#da7298" stroke-width="2px"/><text text-anchor="middle" pointer-events="none" font-family="sans-serif" dy="1.5625" font-size="25" fill="#2A2C34"/><text text-anchor="middle" pointer-events="none" x="0" y="5" font-size="10px" fill="#2A2C34" font-family="sans-serif"> 11/1/2015</text></g><g class="node" transform="translate(-42.84974039945496,-11.773587037716204)"><circle class="outline" cx="0" cy="0" r="25" fill="#ECB5C9" stroke="#da7298" stroke-width="2px"/><text text-anchor="middle" pointer-events="none" font-family="sans-serif" dy="1.5625" font-size="25" fill="#2A2C34"/><text text-anchor="middle" pointer-events="none" x="0" y="5" font-size="10px" fill="#2A2C34" font-family="sans-serif"> 11/2/2015</text></g><g class="node" transform="translate(46.47028221190975,296.6528892642971)"><circle class="outline" cx="0" cy="0" r="25" fill="#ECB5C9" stroke="#da7298" stroke-width="2px"/><text text-anchor="middle" pointer-events="none" font-family="sans-serif" dy="1.5625" font-size="25" fill="#2A2C34"/><text text-anchor="middle" pointer-events="none" x="0" y="5" font-size="10px" fill="#2A2C34" font-family="sans-serif"> 11/2/2015</text></g><g class="node" transform="translate(32.69905436897108,238.38673968599676)"><circle class="outline" cx="0" cy="0" r="25" fill="#ECB5C9" stroke="#da7298" stroke-width="2px"/><text text-anchor="middle" pointer-events="none" font-family="sans-serif" dy="1.5625" font-size="25" fill="#2A2C34"/><text text-anchor="middle" pointer-events="none" x="0" y="5" font-size="10px" fill="#2A2C34" font-family="sans-serif"> 11/2/2015</text></g><g class="node" transform="translate(153.41067269826533,9.75202878653806)"><circle class="outline" cx="0" cy="0" r="25" fill="#ECB5C9" stroke="#da7298" stroke-width="2px"/><text text-anchor="middle" pointer-events="none" font-family="sans-serif" dy="1.5625" font-size="25" fill="#2A2C34"/><text text-anchor="middle" pointer-events="none" x="0" y="5" font-size="10px" fill="#2A2C34" font-family="sans-serif"> 11/4/2015</text></g></g></svg>