<svg xmlns="http://www.w3.org/2000/svg" width="403.69268798828125" height="337.0526428222656" viewBox="-90.56707763671875 -74.55718994140625 403.69268798828125 337.0526428222656"><title>Neo4j Graph Visualization</title><desc>Created using Neo4j (http://www.neo4j.com/)</desc><g class="layer relationships"><g class="relationship" transform="translate(58.2063151183177 39.6418035401588) rotate(362.8985790184661)"><path class="outline" fill="#A5ABB6" stroke="none" d="M 24.018736134675446,-6.953439040707552 L 24.277555179777966,-5.987513214418485 A 100.9804313224412 100.9804313224412 0 0 1 39.17409753987399,-8.800932372042524 L 39.062797594908105,-9.794719231610813 A 101.9804313224412 101.9804313224412 0 0 0 24.018736134675446,-6.953439040707552 Z M 58.462058721092774,-10.110212699185851 L 58.38313333680065,-9.113332172886771 A 100.9804313224412 100.9804313224412 0 0 1 73.36328381426598,-6.785802728364923 L 72.68146647030086,-3.864309084786635 L 80.29373853994285,-5.6818111997093546 L 74.27237360621949,-10.681127586469309 L 73.59055626225437,-7.75963394289102 A 101.9804313224412 101.9804313224412 0 0 0 58.462058721092774,-10.110212699185851"/><text text-anchor="middle" pointer-events="none" font-size="8px" fill="#000000" x="48.763038769180895" y="-6.914920320389342" font-family="sans-serif">trek</text></g><g class="relationship" transform="translate(162.7119594371274 44.933232627056704) rotate(363.86970323301045)"><path class="outline" fill="#A5ABB6" stroke="none" d="M 21.40063509461097,-12.933012701892217 L 21.90063509461097,-12.06698729810778 A 74.61104349193533 74.61104349193533 0 0 1 46.29530380517577,-20.93742125436438 L 46.12226168659451,-21.92233567968107 A 75.61104349193533 75.61104349193533 0 0 0 21.40063509461097,-12.933012701892217 Z M 68.1930209692108,-22.52699846810866 L 68.07416446738789,-21.53408702594757 A 74.61104349193533 74.61104349193533 0 0 1 92.91791491300565,-14.012616168037743 L 91.562414849155,-11.336309089823265 L 99.38854810614787,-11.295833865422 L 94.72524833147315,-17.581025605657047 L 93.36974826762251,-14.90471852744257 A 75.61104349193533 75.61104349193533 0 0 0 68.1930209692108,-22.52699846810866"/><text text-anchor="middle" pointer-events="none" font-size="8px" fill="#000000" x="57.14914476798098" y="-19.534799485464887" font-family="sans-serif">road</text></g><g class="relationship" transform="translate(284.1256235047247 53.14588888305753) rotate(213.33855552202067)"><path class="outline" fill="#A5ABB6" stroke="none" d="M 21.40063509461097,12.933012701892217 L 21.90063509461097,12.06698729810778 A 55.815709199930794 55.815709199930794 0 0 0 25.808316055448326,14.121476705385426 L 25.3783264703808,15.024310553185487 A 56.815709199930794 56.815709199930794 0 0 1 21.40063509461097,12.933012701892217 Z M 70.91407370473742,16.479322882772863 L 70.54259926030355,15.5508797035031 A 55.815709199930794 55.815709199930794 0 0 0 74.57346988608104,13.750052334055713 L 73.24239407177237,11.061514222634841 L 81.06857144844786,11.092298452572283 L 76.3482376384926,17.334769815950207 L 75.01716182418393,14.646231704529335 A 56.815709199930794 56.815709199930794 0 0 1 70.91407370473742,16.479322882772863"/><text text-anchor="middle" pointer-events="none" font-size="8px" fill="#000000" x="48.009941135235444" y="23.01614705062193" transform="rotate(180 48.009941135235444 20.01614705062193)" font-family="sans-serif">twowheeler</text></g><g class="relationship" transform="translate(197.6803294208973 -3.7213634576794385) rotate(467.19701521672226)"><path class="outline" fill="#A5ABB6" stroke="none" d="M 25 0.5 L 65.17857249602169 0.5 L 65.17857249602169 -0.5 L 25 -0.5 Z M 84.51450999602169 0.5 L 124.69308249204337 0.5 L 124.69308249204337 3.5 L 131.69308249204337 0 L 124.69308249204337 -3.5 L 124.69308249204337 -0.5 L 84.51450999602169 -0.5 Z"/><text text-anchor="middle" pointer-events="none" font-size="8px" fill="#000000" x="74.84654124602169" y="3" transform="rotate(180 74.84654124602169 0)" font-family="sans-serif">trek</text></g><g class="relationship" transform="translate(58.2063151183177 39.6418035401588) rotate(362.8985790184661)"><path class="outline" fill="#A5ABB6" stroke="none" d="M 24.018736134675446,6.953439040707552 L 24.277555179777966,5.987513214418485 A 100.9804313224412 100.9804313224412 0 0 0 37.85208537727342,8.644042095067633 L 37.72769366645461,9.636275284534491 A 101.9804313224412 101.9804313224412 0 0 1 24.018736134675446,6.953439040707552 Z M 59.80160882995959,9.995267103480174 L 59.70954808144616,8.999513711026424 A 100.9804313224412 100.9804313224412 0 0 0 73.36328381426598,6.785802728364923 L 72.68146647030086,3.864309084786635 L 80.29373853994285,5.6818111997093546 L 74.27237360621949,10.681127586469309 L 73.59055626225437,7.75963394289102 A 101.9804313224412 101.9804313224412 0 0 1 59.80160882995959,9.995267103480174"/><text text-anchor="middle" pointer-events="none" font-size="8px" fill="#000000" x="48.76303876918092" y="12.914920320389342" font-family="sans-serif">road</text></g><g class="relationship" transform="translate(162.7119594371274 44.933232627056704) rotate(363.86970323301045)"><path class="outline" fill="#A5ABB6" stroke="none" d="M 25 0.5 L 47.677584795634274 0.5 L 47.677584795634274 -0.5 L 25 -0.5 Z M 67.01352229563427 0.5 L 89.69110709126855 0.5 L 89.69110709126855 3.5 L 96.69110709126855 0 L 89.69110709126855 -3.5 L 89.69110709126855 -0.5 L 67.01352229563427 -0.5 Z"/><text text-anchor="middle" pointer-events="none" font-size="8px" fill="#000000" x="57.345553545634274" y="3" font-family="sans-serif">trek</text></g><g class="relationship" transform="translate(284.1256235047247 53.14588888305753) rotate(213.33855552202067)"><path class="outline" fill="#A5ABB6" stroke="none" d="M 25 0.5 L 38.56855910514422 0.5 L 38.56855910514422 -0.5 L 25 -0.5 Z M 57.90449660514422 0.5 L 71.47305571028843 0.5 L 71.47305571028843 3.5 L 78.47305571028843 0 L 71.47305571028843 -3.5 L 71.47305571028843 -0.5 L 57.90449660514422 -0.5 Z"/><text text-anchor="middle" pointer-events="none" font-size="8px" fill="#000000" x="48.23652785514422" y="3" transform="rotate(180 48.23652785514422 0)" font-family="sans-serif">trek</text></g><g class="relationship" transform="translate(162.7119594371274 44.933232627056704) rotate(363.86970323301045)"><path class="outline" fill="#A5ABB6" stroke="none" d="M 21.40063509461097,12.933012701892217 L 21.90063509461097,12.06698729810778 A 74.61104349193533 74.61104349193533 0 0 0 34.55677853530848,17.873629148763953 L 34.22640682152948,18.817480053692663 A 75.61104349193533 75.61104349193533 0 0 1 21.40063509461097,12.933012701892217 Z M 80.2410289595904,20.078122217116388 L 79.96283054904663,19.117598586813145 A 74.61104349193533 74.61104349193533 0 0 0 92.91791491300565,14.012616168037743 L 91.562414849155,11.336309089823265 L 99.38854810614787,11.295833865422 L 94.72524833147315,17.581025605657047 L 93.36974826762251,14.90471852744257 A 75.61104349193533 75.61104349193533 0 0 1 80.2410289595904,20.078122217116388"/><text text-anchor="middle" pointer-events="none" font-size="8px" fill="#000000" x="57.149144767981" y="25.534799485464887" font-family="sans-serif">twowheeler</text></g><g class="relationship" transform="translate(284.1256235047247 53.14588888305753) rotate(213.33855552202067)"><path class="outline" fill="#A5ABB6" stroke="none" d="M 21.40063509461097,-12.933012701892217 L 21.90063509461097,-12.06698729810778 A 55.815709199930794 55.815709199930794 0 0 1 37.22653228490757,-18.108276458930497 L 37.001112638897155,-19.082538222109434 A 56.815709199930794 56.815709199930794 0 0 0 21.40063509461097,-12.933012701892217 Z M 59.05591509821641,-19.787259489551644 L 58.89315332803241,-18.80059409228336 A 55.815709199930794 55.815709199930794 0 0 1 74.57346988608104,-13.750052334055713 L 73.24239407177237,-11.061514222634841 L 81.06857144844786,-11.092298452572283 L 76.3482376384926,-17.334769815950207 L 75.01716182418393,-14.646231704529335 A 56.815709199930794 56.815709199930794 0 0 0 59.05591509821641,-19.787259489551644"/><text text-anchor="middle" pointer-events="none" font-size="8px" fill="#000000" x="48.00994113523544" y="-17.01614705062193" transform="rotate(180 48.00994113523544 -20.01614705062193)" font-family="sans-serif">road</text></g><g class="relationship" transform="translate(58.2063151183177 39.6418035401588) rotate(284.9928223219772)"><path class="outline" fill="#A5ABB6" stroke="none" d="M 21.40063509461097,12.933012701892217 L 21.90063509461097,12.06698729810778 A 39.8765300464168 39.8765300464168 0 0 0 30.950767058706862,15.894158458187825 L 30.677720907338163,16.856159393334323 A 40.8765300464168 40.8765300464168 0 0 1 21.40063509461097,12.933012701892217 Z M 50.05323202119412,17.575569753712983 L 49.85227729499678,16.595969223895366 A 39.8765300464168 39.8765300464168 0 0 0 59.161303607760104,13.45047136753317 L 57.858100685907786,10.748312574183753 L 65.68354127921747,10.860024348769326 L 60.898907503563194,17.053349758665725 L 59.595704581710876,14.351190965316308 A 40.8765300464168 40.8765300464168 0 0 1 50.05323202119412,17.575569753712983"/><text text-anchor="middle" pointer-events="none" font-size="8px" fill="#000000" x="40.340756825692985" y="20.881625950177387" font-family="sans-serif">trek</text></g><g class="relationship" transform="translate(81.02387815655774 -45.5571925056761) rotate(498.93137834978916)"><path class="outline" fill="#A5ABB6" stroke="none" d="M 24.018736134675446,-6.953439040707552 L 24.277555179777966,-5.987513214418485 A 176.88983358167772 176.88983358167772 0 0 1 58.28693243971545,-11.622668694611406 L 58.22037643523721,-12.620451385515537 A 177.88983358167772 177.88983358167772 0 0 0 24.018736134675446,-6.953439040707552 Z M 77.5997974078611,-12.85503103877437 L 77.55741283612745,-11.855929668502597 A 176.88983358167772 176.88983358167772 0 0 1 111.69322773597729,-7.045642772912006 L 110.98714055339725,-4.129919725262214 L 118.61426271092348,-5.884059854833571 L 112.63467731275067,-10.93327350311173 L 111.92859013017063,-8.017550455461937 A 177.88983358167772 177.88983358167772 0 0 0 77.5997974078611,-12.85503103877437"/><text text-anchor="middle" pointer-events="none" font-size="8px" fill="#000000" x="67.91294175282735" y="-9.50189391517182" transform="rotate(180 67.91294175282735 -12.50189391517182)" font-family="sans-serif">trek</text></g><g class="relationship" transform="translate(-26.72077360450098 48.330596020873) rotate(418.18069400513633)"><path class="outline" fill="#A5ABB6" stroke="none" d="M 24.018736134675446,-6.953439040707552 L 24.277555179777966,-5.987513214418485 A 122.69749275334962 122.69749275334962 0 0 1 44.604132208108794,-9.634794737900293 L 44.51097732265779,-10.630446367395578 A 123.69749275334962 123.69749275334962 0 0 0 24.018736134675446,-6.953439040707552 Z M 63.90334113764934,-10.917760900880609 L 63.839723534157024,-9.919786552249406 A 122.69749275334962 122.69749275334962 0 0 1 84.2654302611115,-6.876285130425323 L 83.57516121314025,-3.9567768428171406 L 91.19266110685913,-5.7522420664270975 L 85.18578899173984,-10.768962847236233 L 84.49551994376858,-7.84945455962805 A 123.69749275334962 123.69749275334962 0 0 0 63.90334113764934,-10.917760900880609"/><text text-anchor="middle" pointer-events="none" font-size="8px" fill="#000000" x="54.20892667376849" y="-7.654809600566736" font-family="sans-serif">trek</text></g><g class="relationship" transform="translate(34.18723845659923 146.4912944473132) rotate(359.74339890740805)"><path class="outline" fill="#A5ABB6" stroke="none" d="M 24.018736134675446,6.953439040707552 L 24.277555179777966,5.987513214418485 A 125.96859300681353 125.96859300681353 0 0 0 32.06206038586565,7.810690737684212 L 31.865038531795232,8.791089834490535 A 126.96859300681353 126.96859300681353 0 0 1 24.018736134675446,6.953439040707552 Z M 78.24670187032183,9.469153796247767 L 78.0784234383913,8.483414292450234 A 125.96859300681353 125.96859300681353 0 0 0 85.9128974132132,6.888574136577157 L 85.22148051510749,3.9693374772749537 L 92.83968576793595,5.761807484214211 L 86.83478661068747,10.780889682313427 L 86.14336971258176,7.861653023011224 A 126.96859300681353 126.96859300681353 0 0 1 78.24670187032183,9.469153796247767"/><text text-anchor="middle" pointer-events="none" font-size="8px" fill="#000000" x="55.031950887123465" y="13.766276557098237" font-family="sans-serif">twowheeler</text></g><g class="relationship" transform="translate(58.2063151183177 39.6418035401588) rotate(284.9928223219772)"><path class="outline" fill="#A5ABB6" stroke="none" d="M 25 0.5 L 29.594906236897963 0.5 L 29.594906236897963 -0.5 L 25 -0.5 Z M 51.60662498689796 0.5 L 56.201531223795925 0.5 L 56.201531223795925 3.5 L 63.201531223795925 0 L 56.201531223795925 -3.5 L 56.201531223795925 -0.5 L 51.60662498689796 -0.5 Z"/><text text-anchor="middle" pointer-events="none" font-size="8px" fill="#000000" x="40.60076561189796" y="3" font-family="sans-serif">road</text></g><g class="relationship" transform="translate(81.02387815655774 -45.5571925056761) rotate(498.93137834978916)"><path class="outline" fill="#A5ABB6" stroke="none" d="M 24.018736134675446,6.953439040707552 L 24.277555179777966,5.987513214418485 A 176.88983358167772 176.88983358167772 0 0 0 44.83825618060742,10.207538561615479 L 44.695671633466226,11.19732118770898 A 177.88983358167772 177.88983358167772 0 0 1 24.018736134675446,6.953439040707552 Z M 91.15498721581939,11.759691454361786 L 91.03640273127996,10.766747488154977 A 176.88983358167772 176.88983358167772 0 0 0 111.69322773597729,7.045642772912006 L 110.98714055339725,4.129919725262214 L 118.61426271092348,5.884059854833571 L 112.63467731275067,10.93327350311173 L 111.92859013017063,8.017550455461937 A 177.88983358167772 177.88983358167772 0 0 1 91.15498721581939,11.759691454361786"/><text text-anchor="middle" pointer-events="none" font-size="8px" fill="#000000" x="67.91294175282738" y="15.50189391517182" transform="rotate(180 67.91294175282738 12.50189391517182)" font-family="sans-serif">twowheeler</text></g><g class="relationship" transform="translate(34.18723845659923 146.4912944473132) rotate(359.74339890740805)"><path class="outline" fill="#A5ABB6" stroke="none" d="M 24.018736134675446,-6.953439040707552 L 24.277555179777966,-5.987513214418485 A 125.96859300681353 125.96859300681353 0 0 1 45.425295961614765,-9.757845284217026 L 45.33435797540994,-10.753701841490724 A 126.96859300681353 126.96859300681353 0 0 0 24.018736134675446,-6.953439040707552 Z M 64.72576709846165,-11.037189210153286 L 64.66397905483632,-10.039099916720602 A 125.96859300681353 125.96859300681353 0 0 1 85.9128974132132,-6.888574136577157 L 85.22148051510749,-3.9693374772749537 L 92.83968576793595,-5.761807484214211 L 86.83478661068747,-10.780889682313427 L 86.14336971258176,-7.861653023011224 A 126.96859300681353 126.96859300681353 0 0 0 64.72576709846165,-11.037189210153286"/><text text-anchor="middle" pointer-events="none" font-size="8px" fill="#000000" x="55.03195088712344" y="-7.766276557098237" font-family="sans-serif">trek</text></g><g class="relationship" transform="translate(58.2063151183177 39.6418035401588) rotate(284.9928223219772)"><path class="outline" fill="#A5ABB6" stroke="none" d="M 21.40063509461097,-12.933012701892217 L 21.90063509461097,-12.06698729810778 A 39.8765300464168 39.8765300464168 0 0 1 23.413988805912137,-12.897575024285452 L 22.951939793862685,-13.784429415075806 A 40.8765300464168 40.8765300464168 0 0 0 21.40063509461097,-12.933012701892217 Z M 57.985532385411126,-15.085222427633859 L 57.59052252891752,-14.166545545769026 A 39.8765300464168 39.8765300464168 0 0 1 59.161303607760104,-13.45047136753317 L 57.858100685907786,-10.748312574183753 L 65.68354127921747,-10.860024348769326 L 60.898907503563194,-17.053349758665725 L 59.595704581710876,-14.351190965316308 A 40.8765300464168 40.8765300464168 0 0 0 57.985532385411126,-15.085222427633859"/><text text-anchor="middle" pointer-events="none" font-size="8px" fill="#000000" x="40.34075682569299" y="-14.881625950177387" font-family="sans-serif">Public…</text></g><g class="relationship" transform="translate(-26.72077360450098 48.330596020873) rotate(418.18069400513633)"><path class="outline" fill="#A5ABB6" stroke="none" d="M 24.018736134675446,6.953439040707552 L 24.277555179777966,5.987513214418485 A 122.69749275334962 122.69749275334962 0 0 0 31.249845355696497,7.63913584527684 L 31.04785135256883,8.618522603764248 A 123.69749275334962 123.69749275334962 0 0 1 24.018736134675446,6.953439040707552 Z M 77.42016150692751,9.305568225728223 L 77.24727070744383,8.320627226757267 A 122.69749275334962 122.69749275334962 0 0 0 84.2654302611115,6.876285130425323 L 83.57516121314025,3.9567768428171406 L 91.19266110685913,5.7522420664270975 L 85.18578899173984,10.768962847236233 L 84.49551994376858,7.84945455962805 A 123.69749275334962 123.69749275334962 0 0 1 77.42016150692751,9.305568225728223"/><text text-anchor="middle" pointer-events="none" font-size="8px" fill="#000000" x="54.20892667376849" y="13.654809600566736" font-family="sans-serif">twowheeler</text></g><g class="relationship" transform="translate(81.02387815655774 -45.5571925056761) rotate(379.72906330150715)"><path class="outline" fill="#A5ABB6" stroke="none" d="M 25 0.5 L 48.79767538794637 0.5 L 48.79767538794637 -0.5 L 25 -0.5 Z M 68.13361288794637 0.5 L 91.93128827589274 0.5 L 91.93128827589274 3.5 L 98.93128827589274 0 L 91.93128827589274 -3.5 L 91.93128827589274 -0.5 L 68.13361288794637 -0.5 Z"/><text text-anchor="middle" pointer-events="none" font-size="8px" fill="#000000" x="58.46564413794637" y="3" font-family="sans-serif">trek</text></g><g class="relationship" transform="translate(81.02387815655774 -45.5571925056761) rotate(407.92660490900266)"><path class="outline" fill="#A5ABB6" stroke="none" d="M 25 0.5 L 47.78582453639785 0.5 L 47.78582453639785 -0.5 L 25 -0.5 Z M 67.12176203639785 0.5 L 89.9075865727957 0.5 L 89.9075865727957 3.5 L 96.9075865727957 0 L 89.9075865727957 -3.5 L 89.9075865727957 -0.5 L 67.12176203639785 -0.5 Z"/><text text-anchor="middle" pointer-events="none" font-size="8px" fill="#000000" x="57.45379328639785" y="3" font-family="sans-serif">trek</text></g><g class="relationship" transform="translate(-26.72077360450098 48.330596020873) rotate(465.87752373644196)"><path class="outline" fill="#A5ABB6" stroke="none" d="M 24.018736134675446,-6.953439040707552 L 24.277555179777966,-5.987513214418485 A 146.208209531391 146.208209531391 0 0 1 50.52147584213443,-10.508740122466719 L 50.44215369906272,-11.505589156984257 A 147.208209531391 147.208209531391 0 0 0 24.018736134675446,-6.953439040707552 Z M 69.82818244146029,-11.767437804733731 L 69.77581336429293,-10.768810006324031 A 146.208209531391 146.208209531391 0 0 1 96.13227469900694,-6.958060683967009 L 95.43436757495734,-4.040368848594259 L 103.05654016888496,-5.815892700413387 L 97.0628175310731,-10.848316464464009 L 96.36491040702349,-7.930624629091259 A 147.208209531391 147.208209531391 0 0 0 69.82818244146029,-11.767437804733731"/><text text-anchor="middle" pointer-events="none" font-size="8px" fill="#000000" x="60.13760552175848" y="-8.456056162539198" transform="rotate(180 60.13760552175848 -11.456056162539198)" font-family="sans-serif">trek</text></g><g class="relationship" transform="translate(-61.567077661229874 170.84188007723904) rotate(345.7319649407614)"><path class="outline" fill="#A5ABB6" stroke="none" d="M 21.40063509461097,12.933012701892217 L 21.90063509461097,12.06698729810778 A 50.96237568250441 50.96237568250441 0 0 0 23.631352964653132,13.02195164771473 L 23.165313663048053,13.906715666738698 A 51.96237568250441 51.96237568250441 0 0 1 21.40063509461097,12.933012701892217 Z M 68.47892150110597,15.419125275373538 L 68.07291430285645,14.505255396796954 A 50.96237568250441 50.96237568250441 0 0 0 69.8634562563843,13.667818373875203 L 68.54003090467494,10.97550610772684 L 76.36608910268204,11.028544597578069 L 71.62802339199679,17.25756806207302 L 70.30459804028743,14.565255795924656 A 51.96237568250441 51.96237568250441 0 0 1 68.47892150110597,15.419125275373538"/><text text-anchor="middle" pointer-events="none" font-size="8px" fill="#000000" x="45.665144895994395" y="22.366010624559543" font-family="sans-serif">twowheeler</text></g><g class="relationship" transform="translate(-61.567077661229874 170.84188007723904) rotate(345.7319649407614)"><path class="outline" fill="#A5ABB6" stroke="none" d="M 25 0.5 L 36.2330435769592 0.5 L 36.2330435769592 -0.5 L 25 -0.5 Z M 55.5689810769592 0.5 L 66.8020246539184 0.5 L 66.8020246539184 3.5 L 73.8020246539184 0 L 66.8020246539184 -3.5 L 66.8020246539184 -0.5 L 55.5689810769592 -0.5 Z"/><text text-anchor="middle" pointer-events="none" font-size="8px" fill="#000000" x="45.9010123269592" y="3" font-family="sans-serif">trek</text></g><g class="relationship" transform="translate(-26.72077360450098 48.330596020873) rotate(465.87752373644196)"><path class="outline" fill="#A5ABB6" stroke="none" d="M 24.018736134675446,6.953439040707552 L 24.277555179777966,5.987513214418485 A 146.208209531391 146.208209531391 0 0 0 37.114575170470545,8.81544676376214 L 36.94355570948055,9.800714414688883 A 147.208209531391 147.208209531391 0 0 1 24.018736134675446,6.953439040707552 Z M 83.36790328742094,10.42777180728163 L 83.22355754068425,9.438244493156844 A 146.208209531391 146.208209531391 0 0 0 96.13227469900694,6.958060683967009 L 95.43436757495734,4.040368848594259 L 103.05654016888496,5.815892700413387 L 97.0628175310731,10.848316464464009 L 96.36491040702349,7.930624629091259 A 147.208209531391 147.208209531391 0 0 1 83.36790328742094,10.42777180728163"/><text text-anchor="middle" pointer-events="none" font-size="8px" fill="#000000" x="60.137605521758516" y="14.456056162539198" transform="rotate(180 60.137605521758516 11.456056162539198)" font-family="sans-serif">twowheeler</text></g><g class="relationship" transform="translate(-61.567077661229874 170.84188007723904) rotate(345.7319649407614)"><path class="outline" fill="#A5ABB6" stroke="none" d="M 21.40063509461097,-12.933012701892217 L 21.90063509461097,-12.06698729810778 A 50.96237568250441 50.96237568250441 0 0 1 34.91053463139998,-17.345135014791126 L 34.66581903214772,-18.314729917563724 A 51.96237568250441 51.96237568250441 0 0 0 21.40063509461097,-12.933012701892217 Z M 56.710089786788885,-19.050490509035896 L 56.5305701491972,-18.066736119099588 A 50.96237568250441 50.96237568250441 0 0 1 69.8634562563843,-13.667818373875203 L 68.54003090467494,-10.97550610772684 L 76.36608910268204,-11.028544597578069 L 71.62802339199679,-17.25756806207302 L 70.30459804028743,-14.565255795924656 A 51.96237568250441 51.96237568250441 0 0 0 56.710089786788885,-19.050490509035896"/><text text-anchor="middle" pointer-events="none" font-size="8px" fill="#000000" x="45.66514489599438" y="-16.366010624559543" font-family="sans-serif">road</text></g><g class="relationship" transform="translate(-61.567077661229874 170.84188007723904) rotate(388.86124422809473)"><path class="outline" fill="#A5ABB6" stroke="none" d="M 25 0.5 L 51.73244108826148 0.5 L 51.73244108826148 -0.5 L 25 -0.5 Z M 71.06837858826148 0.5 L 97.80081967652296 0.5 L 97.80081967652296 3.5 L 104.80081967652296 0 L 97.80081967652296 -3.5 L 97.80081967652296 -0.5 L 71.06837858826148 -0.5 Z"/><text text-anchor="middle" pointer-events="none" font-size="8px" fill="#000000" x="61.40040983826148" y="3" font-family="sans-serif">trek</text></g><g class="relationship" transform="translate(52.11134141010891 233.49545001653544) rotate(318.58835854845216)"><path class="outline" fill="#A5ABB6" stroke="none" d="M 25 0.5 L 52.99500776822862 0.5 L 52.99500776822862 -0.5 L 25 -0.5 Z M 72.33094526822862 0.5 L 100.32595303645724 0.5 L 100.32595303645724 3.5 L 107.32595303645724 0 L 100.32595303645724 -3.5 L 100.32595303645724 -0.5 L 72.33094526822862 -0.5 Z"/><text text-anchor="middle" pointer-events="none" font-size="8px" fill="#000000" x="62.66297651822862" y="3" font-family="sans-serif">trek</text></g></g><g class="layer nodes"><g class="node" transform="translate(58.2063151183177,39.6418035401588)"><circle class="outline" cx="0" cy="0" r="25" fill="#F16667" stroke="#eb2728" stroke-width="2px"/><text text-anchor="middle" pointer-events="none" font-family="sans-serif" dy="1.5625" font-size="25" fill="#FFFFFF"/><text text-anchor="middle" pointer-events="none" x="0" y="5" font-size="10px" fill="#FFFFFF" font-family="sans-serif"> Darjeeling</text></g><g class="node" transform="translate(151.35272136592917,145.96656134844366)"><circle class="outline" cx="0" cy="0" r="25" fill="#FFC454" stroke="#d7a013" stroke-width="2px"/><text text-anchor="middle" pointer-events="none" font-family="sans-serif" dy="1.5625" font-size="25" fill="#2A2C34"/><text text-anchor="middle" pointer-events="none" x="0" y="5" font-size="10px" fill="#2A2C34" font-family="sans-serif"> Sandak…</text></g><g class="node" transform="translate(162.7119594371274,44.933232627056704)"><circle class="outline" cx="0" cy="0" r="25" fill="#D9C8AE" stroke="#c0a378" stroke-width="2px"/><text text-anchor="middle" pointer-events="none" font-family="sans-serif" dy="1.5625" font-size="25" fill="#2A2C34"/><text text-anchor="middle" pointer-events="none" x="0" y="5" font-size="10px" fill="#2A2C34" font-family="sans-serif"> Tumbling</text></g><g class="node" transform="translate(284.1256235047247,53.14588888305753)"><circle class="outline" cx="0" cy="0" r="25" fill="#D9C8AE" stroke="#c0a378" stroke-width="2px"/><text text-anchor="middle" pointer-events="none" font-family="sans-serif" dy="1.5625" font-size="25" fill="#2A2C34"/><text text-anchor="middle" pointer-events="none" x="0" y="5" font-size="10px" fill="#2A2C34" font-family="sans-serif"> Gairibus</text></g><g class="node" transform="translate(197.6803294208973,-3.7213634576794385)"><circle class="outline" cx="0" cy="0" r="25" fill="#D9C8AE" stroke="#c0a378" stroke-width="2px"/><text text-anchor="middle" pointer-events="none" font-family="sans-serif" dy="1.5625" font-size="25" fill="#2A2C34"/><text text-anchor="middle" pointer-events="none" x="0" y="5" font-size="10px" fill="#2A2C34" font-family="sans-serif"> BhikeBh…</text></g><g class="node" transform="translate(81.02387815655774,-45.5571925056761)"><circle class="outline" cx="0" cy="0" r="25" fill="#F16667" stroke="#eb2728" stroke-width="2px"/><text text-anchor="middle" pointer-events="none" font-family="sans-serif" dy="1.5625" font-size="25" fill="#FFFFFF"/><text text-anchor="middle" pointer-events="none" x="0" y="5" font-size="10px" fill="#FFFFFF" font-family="sans-serif"> Rimbik</text></g><g class="node" transform="translate(-26.72077360450098,48.330596020873)"><circle class="outline" cx="0" cy="0" r="25" fill="#D9C8AE" stroke="#c0a378" stroke-width="2px"/><text text-anchor="middle" pointer-events="none" font-family="sans-serif" dy="1.5625" font-size="25" fill="#2A2C34"/><text text-anchor="middle" pointer-events="none" x="0" y="5" font-size="10px" fill="#2A2C34" font-family="sans-serif"> Sirikhola</text></g><g class="node" transform="translate(34.18723845659923,146.4912944473132)"><circle class="outline" cx="0" cy="0" r="25" fill="#D9C8AE" stroke="#c0a378" stroke-width="2px"/><text text-anchor="middle" pointer-events="none" font-family="sans-serif" dy="1.5625" font-size="25" fill="#2A2C34"/><text text-anchor="middle" pointer-events="none" x="0" y="5" font-size="10px" fill="#2A2C34" font-family="sans-serif"> Gurdum</text></g><g class="node" transform="translate(-61.567077661229874,170.84188007723904)"><circle class="outline" cx="0" cy="0" r="25" fill="#D9C8AE" stroke="#c0a378" stroke-width="2px"/><text text-anchor="middle" pointer-events="none" font-family="sans-serif" dy="1.5625" font-size="25" fill="#2A2C34"/><text text-anchor="middle" pointer-events="none" x="0" y="5" font-size="10px" fill="#2A2C34" font-family="sans-serif"> Rammam</text></g><g class="node" transform="translate(52.11134141010891,233.49545001653544)"><circle class="outline" cx="0" cy="0" r="25" fill="#FFC454" stroke="#d7a013" stroke-width="2px"/><text text-anchor="middle" pointer-events="none" font-family="sans-serif" dy="1.5625" font-size="25" fill="#2A2C34"/><text text-anchor="middle" pointer-events="none" x="0" y="5" font-size="10px" fill="#2A2C34" font-family="sans-serif"> Sabargr…</text></g></g></svg>